<svg version="1.1" xmlns="http://www.w3.org/2000/svg" xmlns:xlink="http://www.w3.org/1999/xlink" width="50" height="56" viewBox="0 0 50 56"><path stroke="none" fill="black" fill-rule="evenodd" d="M23.782340225189987,41.71845035116629L23.5,53.82596285952853L13.5,47.93081553319428C8.0,44.68848450371044 3.170559843246315,41.91514286031652 2.7679107627695885,41.76783410343002C2.365261682292862,41.62052534654351 1.9881307011162799,35.95213098117662 1.9298419157105169,29.171402180392487C1.871553130304754,22.390673379608355 2.0459774304893905,16.62068923617737 2.3174514716763763,16.349215194990297C2.588925512863362,16.077741153803224 4.766056494039944,17.090181643993326 7.155520318735448,18.599082950968302C9.544984143430952,20.10798425794328 14.129787057322975,22.68886234561374 17.343971238495502,24.334367590235992C20.55815541966803,25.97987283485824 23.385208521003523,27.840262378122432 23.62631146368549,28.468566575267523C23.867414406367455,29.096870772412615 23.93762734904448,35.05931847156706 23.782340225189987,41.71845035116629zM25.600306177471403,53.0C25.270137779862132,53.0 25.0,51.0076610670648 25.0,48.57258014903289C25.0,45.003365894579055 25.500581243073377,43.75140303487728 27.582461990004717,42.113795400672856C29.00281608450731,40.99654470710675 31.027816084507307,39.80855918829127 32.08246199000472,39.4738275810829C33.257692160957724,39.100824014755744 34.0,37.95319412577155 34.0,36.50925706493007C34.0,34.22909744689312 33.904108687680065,34.20112635758646 31.01988053856622,35.63996885118486C29.380814834777645,36.45764251030069 27.779257187308918,37.548152379331476 27.460863544191277,38.063324115697725C27.142469901073632,38.57849585206398 26.435006847346855,39.0 25.888723424798435,39.0C25.31881051659304,39.0 25.024306819877925,36.76239879249168 25.197740419173382,33.75L25.5,28.5L36.0,22.265879835683926L46.5,16.03175967136785L46.783394507720374,27.707663498047715C46.93926148696658,34.12941060272164 46.85715147654106,39.92987399400618 46.60092781788589,40.59758214534669C46.34470415923071,41.2652902966872 41.649814410618674,44.328987648623496 36.16783948763691,47.4057984829829C30.685864564655155,50.48260931734231 25.930474575080673,53.0 25.600306177471403,53.0zM28.540963360928096,49.0C28.83849320943855,49.0 31.650993209438553,47.640649577054994 34.790963360928096,45.979221282344426C37.930933512417646,44.317792987633865 41.2875,42.35568381825695 42.25,41.618978683729054C43.712954292565946,40.49922186407924 44.0,38.62112178342494 44.0,30.168972444217104L44.0,20.05843008566495L39.25,22.993912277803624C36.6375,24.608427483479893 33.0375,26.597318723353066 31.25,27.413670588632897C29.122164671659377,28.38545371551356 28.0,29.606128135985895 28.0,30.94897335366175C28.0,32.077038009147785 28.61431358868942,33.0 29.365141308198716,33.0C30.115969027708008,33.0 31.874447209369954,32.1 33.27287060078082,31.0C34.671293992191686,29.900000000000002 36.306980403502266,29.000000000000004 36.907729292582104,29.0C37.55885162906042,29.0 37.99958938163179,31.120379986118866 37.99898332070327,34.25L37.997966641406535,39.5L32.99898332070327,42.30768570101078C29.679846538789647,44.171883335694396 28.0,45.76806210792688 28.0,47.05768570101078C28.0,48.12595856545485 28.243433512417646,49.0 28.540963360928096,49.0z"/></svg>